<?xml version="1.0" standalone="no"?>
<!DOCTYPE svg PUBLIC "-//W3C//DTD SVG 20010904//EN"
 "http://www.w3.org/TR/2001/REC-SVG-20010904/DTD/svg10.dtd">
<svg version="1.0" xmlns="http://www.w3.org/2000/svg"
 width="700.000000pt" height="700.000000pt" viewBox="0 0 700.000000 700.000000"
 preserveAspectRatio="xMidYMid meet">
<metadata>
Created by potrace 1.14, written by Peter Selinger 2001-2017
</metadata>
<g transform="translate(0.000000,700.000000) scale(0.100000,-0.100000)"
fill="#000000" stroke="none">
<path d="M0 4998 l0 -2003 106 1 c58 1 108 5 112 9 4 4 7 853 7 1888 l0 1882
3278 3 3277 2 0 -3280 0 -3280 -3273 0 -3274 0 1 98 c1 53 0 104 -2 112 -3 13
-23 15 -115 15 l-112 0 -3 -222 -2 -223 3500 0 3500 0 0 3500 0 3500 -3500 0
-3500 0 0 -2002z"/>
<path d="M5738 2766 c-148 -43 -248 -139 -298 -285 -78 -232 25 -498 227 -587
173 -77 393 -37 508 93 l31 34 -70 70 c-39 38 -73 69 -76 69 -4 0 -17 -12 -31
-26 -82 -89 -230 -92 -315 -7 -92 92 -91 287 2 379 88 89 216 86 314 -6 l33
-31 69 68 c37 37 68 72 68 77 0 21 -97 100 -156 128 -54 25 -79 30 -162 34
-63 2 -113 -1 -144 -10z"/>
<path d="M4 2761 c-2 -2 -4 -204 -4 -448 l0 -443 115 0 115 0 0 120 0 121 62
-3 62 -3 74 -117 75 -118 118 0 c66 0 119 2 119 5 0 2 -38 66 -85 141 l-85
137 28 17 c43 27 79 71 104 125 31 70 32 209 2 276 -47 101 -140 169 -254 186
-43 6 -440 10 -446 4z m426 -211 c79 -33 90 -170 18 -223 -22 -17 -45 -21
-123 -22 l-95 -3 0 133 0 132 85 -2 c47 -2 99 -8 115 -15z"/>
<path d="M870 2318 l0 -448 324 0 324 0 -1 98 -2 97 -203 1 c-140 0 -206 4
-211 12 -3 6 -6 42 -6 79 l1 68 180 3 180 2 -1 93 0 92 -180 5 -180 5 0 70 0
70 199 2 c110 2 202 5 205 8 8 8 8 147 1 170 -7 19 -18 19 -319 20 l-311 0 0
-447z"/>
<path d="M1664 2761 c-2 -2 -4 -204 -4 -448 l0 -444 113 3 112 3 2 108 c0 60
4 111 7 115 4 3 48 7 99 8 167 3 239 27 310 103 59 63 82 126 81 221 0 94 -15
147 -57 202 -82 107 -161 130 -450 132 -115 0 -211 -1 -213 -3z m418 -210 c48
-16 70 -52 72 -116 1 -59 -20 -100 -62 -117 -15 -6 -66 -12 -114 -13 l-88 -2
0 127 c0 70 2 129 5 132 9 9 151 1 187 -11z"/>
<path d="M2504 2760 c-3 -2 -4 -136 -4 -297 2 -253 4 -301 20 -354 35 -116
102 -189 208 -230 80 -31 224 -31 303 0 109 42 189 140 215 265 18 87 20 612
2 618 -7 2 -58 3 -113 3 l-100 -1 -1 -264 c-1 -289 -5 -328 -34 -374 -25 -41
-53 -57 -105 -61 -79 -7 -141 42 -159 126 -3 15 -6 148 -6 298 -1 149 -4 271
-8 272 -25 4 -215 3 -218 -1z"/>
<path d="M3434 2761 c-2 -2 -4 -204 -4 -449 l0 -444 278 4 c256 4 281 6 333
26 107 42 161 125 154 236 -5 86 -44 146 -121 192 -18 11 -18 13 10 35 45 36
76 112 71 180 -2 31 -10 70 -18 86 -35 66 -111 115 -202 129 -52 8 -494 12
-501 5z m471 -213 c28 -33 26 -81 -5 -113 -18 -17 -36 -20 -133 -23 l-113 -4
0 87 1 87 113 -4 c110 -3 115 -4 137 -30z m19 -332 c39 -25 48 -50 36 -94 -15
-57 -39 -66 -183 -66 l-122 -1 -1 85 c0 47 3 88 8 91 4 3 60 4 123 4 87 -2
120 -6 139 -19z"/>
<path d="M4348 2762 c-17 -3 -18 -33 -18 -448 l0 -444 307 2 307 3 1 98 1 97
-193 0 -193 0 0 345 c0 190 -3 345 -7 346 -28 3 -191 4 -205 1z"/>
<path d="M5060 2762 c-6 -2 -10 -161 -10 -448 l0 -445 113 3 112 3 2 445 1
445 -104 0 c-57 0 -108 -1 -114 -3z"/>
<path d="M360 1576 c-201 -37 -341 -197 -357 -408 -24 -311 208 -533 517 -495
85 10 196 64 245 118 l38 42 -69 68 c-38 38 -72 68 -77 69 -4 0 -21 -13 -38
-29 -62 -60 -146 -80 -230 -55 -96 29 -152 118 -152 244 0 58 5 85 23 120 43
86 118 130 213 126 58 -3 100 -21 151 -66 l34 -30 73 68 72 69 -42 45 c-88 97
-250 143 -401 114z"/>
<path d="M1167 1563 c-7 -11 -357 -870 -357 -876 0 -2 52 -3 116 -3 132 1 113
-13 159 111 l22 60 171 0 171 0 15 -35 c9 -19 24 -57 34 -85 l18 -50 117 0
c74 -1 117 3 117 10 0 5 -19 55 -41 110 -82 197 -231 562 -271 663 l-41 102
-113 0 c-62 0 -115 -3 -117 -7z m166 -382 c26 -70 47 -131 47 -135 0 -3 -45
-6 -100 -6 -55 0 -100 3 -100 7 0 13 95 263 100 263 3 0 26 -58 53 -129z"/>
<path d="M1839 1558 c0 -7 -1 -204 -2 -436 -1 -273 2 -426 8 -431 6 -4 57 -7
115 -7 l105 1 5 115 5 115 95 0 c115 0 181 14 250 51 98 53 151 147 152 267 1
105 -23 169 -86 233 -88 88 -126 97 -408 102 -194 3 -238 1 -239 -10z m435
-202 c55 -23 80 -102 56 -173 -17 -47 -60 -65 -167 -71 l-93 -5 0 132 0 131
85 0 c50 0 99 -6 119 -14z"/>
<path d="M2702 1128 l3 -443 113 0 112 -1 1 41 c0 22 1 220 1 440 l0 400 -116
3 -116 3 2 -443z"/>
<path d="M3039 1568 c-1 -2 -3 -47 -4 -100 l-4 -98 127 0 127 0 0 -322 c0
-178 1 -332 3 -344 3 -19 10 -20 115 -20 l112 1 1 335 c1 184 2 338 3 343 1 4
56 7 124 7 l123 0 1 100 1 100 -364 0 c-200 0 -365 -1 -365 -2z"/>
<path d="M4074 1533 c-26 -60 -26 -61 -169 -413 -75 -184 -144 -355 -154 -380
-11 -24 -18 -47 -16 -51 2 -3 55 -5 117 -5 l112 1 32 85 32 85 172 0 173 0 30
-80 c16 -44 32 -82 34 -85 3 -3 56 -5 119 -6 82 0 114 3 114 11 0 7 -50 133
-111 281 -60 148 -140 342 -177 432 l-67 162 -112 0 -112 0 -17 -37z m154
-280 c11 -32 32 -89 46 -128 14 -38 26 -73 26 -77 0 -5 -45 -8 -100 -8 -55 0
-100 3 -100 6 0 16 96 264 102 264 3 0 15 -26 26 -57z"/>
<path d="M4759 1543 c-4 -159 0 -845 5 -851 4 -4 145 -7 312 -7 l304 -1 0 98
c0 71 -3 98 -12 99 -7 0 -95 1 -195 1 l-183 1 0 343 0 344 -115 0 -115 0 -1
-27z"/>
</g>
</svg>
