<svg width="107" height="107" viewBox="0 0 107 107" fill="none" xmlns="http://www.w3.org/2000/svg">
<g clip-path="url(#clip0_6_8)">
<path d="M6.87739 96.8149C5.56738 96.8149 4.38843 96.5187 3.34045 95.9268C2.30435 95.3217 1.4886 94.4851 0.89317 93.4166C0.297736 92.3485 0 91.1383 0 89.7868C0 88.4353 0.297736 87.2251 0.89317 86.157C1.4886 85.0885 2.30435 84.2583 3.34045 83.6663C4.38843 83.0612 5.56738 82.7587 6.87739 82.7587C8.02064 82.7587 9.05073 82.9774 9.96772 83.4153C10.8847 83.8527 11.6469 84.4834 12.2542 85.3072L10.0035 87.5085C9.19366 86.4528 8.21115 85.9251 7.05602 85.9251C6.37719 85.9251 5.76984 86.086 5.23394 86.4081C4.70995 86.7298 4.29909 87.1868 4.00139 87.7787C3.71557 88.3579 3.57268 89.0272 3.57268 89.7868C3.57268 90.5464 3.71557 91.2221 4.00139 91.814C4.29909 92.3932 4.70995 92.8438 5.23394 93.1655C5.76984 93.4876 6.37719 93.6485 7.05602 93.6485C8.21115 93.6485 9.19366 93.1208 10.0035 92.0651L12.2542 94.2664C11.6469 95.0902 10.8847 95.7208 9.96772 96.1583C9.05073 96.5962 8.02064 96.8149 6.87739 96.8149ZM22.2099 93.9187H16.9224L15.9399 96.5447H12.3315L17.8513 83.0289H21.3346L26.8721 96.5447H23.1924L22.2099 93.9187ZM21.1737 91.0996L19.5663 86.7749L17.9585 91.0996H21.1737ZM33.8014 83.0289C34.9327 83.0289 35.9151 83.2349 36.7487 83.6468C37.5823 84.0459 38.2257 84.6251 38.6782 85.3847C39.1307 86.1311 39.357 87.0128 39.357 88.0298C39.357 89.0468 39.1307 89.9285 38.6782 90.6749C38.2257 91.4217 37.5823 92.0008 36.7487 92.4128C35.9151 92.8119 34.9327 93.0111 33.8014 93.0111H31.6219V96.5447H28.085V83.0289H33.8014ZM33.5872 89.9991C34.3133 89.9991 34.8613 89.8319 35.2303 89.497C35.5998 89.1498 35.7843 88.6604 35.7843 88.0298C35.7843 87.3991 35.5998 86.9098 35.2303 86.5625C34.8613 86.2149 34.3133 86.0412 33.5872 86.0412H31.6219V89.9991H33.5872ZM41.2914 83.0289H44.8284V96.5447H41.2914V83.0289ZM50.2167 86.0604H46.3761V83.0289H57.5763V86.0604H53.7537V96.5447H50.2167V86.0604ZM66.8541 93.9187H61.5665L60.5841 96.5447H56.9757L62.4952 83.0289H65.9788L71.5164 96.5447H67.8366L66.8541 93.9187ZM65.818 91.0996L64.2101 86.7749L62.6027 91.0996H65.818ZM72.7292 83.0289H76.2662V93.5132H82.2325V96.5447H72.7292V83.0289ZM5.40641 74.7696H3.49827V78.3896H0V64.7656H5.65375C6.77272 64.7656 7.74444 64.9731 8.56894 65.3884C9.39345 65.7905 10.0295 66.3746 10.4771 67.1402C10.9247 67.8926 11.1485 68.7814 11.1485 69.8067C11.1485 70.7925 10.9365 71.6554 10.5124 72.3951C10.1002 73.1216 9.50537 73.6924 8.72796 74.1077L11.3958 78.3896H7.65022L5.40641 74.7696ZM7.61489 69.8067C7.61489 69.1708 7.43231 68.6777 7.06719 68.3274C6.70206 67.9771 6.16022 67.802 5.44174 67.802H3.49827V71.7918H5.44174C6.16022 71.7918 6.70206 71.6231 7.06719 71.2856C7.43231 70.9353 7.61489 70.4422 7.61489 69.8067ZM23.2157 75.4119V78.3896H13.2863V64.7656H22.986V67.7434H16.7492V70.0401H22.2441V72.9205H16.7492V75.4119H23.2157ZM31.0187 64.7656C32.1376 64.7656 33.1091 64.9731 33.9337 65.3884C34.7583 65.7905 35.3942 66.3746 35.8418 67.1402C36.2894 67.8926 36.5134 68.7814 36.5134 69.8067C36.5134 70.8316 36.2894 71.7204 35.8418 72.4729C35.3942 73.2257 34.7583 73.8093 33.9337 74.2246C33.1091 74.6268 32.1376 74.8278 31.0187 74.8278H28.8629V78.3896H25.3647V64.7656H31.0187ZM30.8064 71.7918C31.525 71.7918 32.0669 71.6231 32.4319 71.2856C32.7972 70.9353 32.9798 70.4422 32.9798 69.8067C32.9798 69.1708 32.7972 68.6777 32.4319 68.3274C32.0669 67.9771 31.525 67.802 30.8064 67.802H28.8629V71.7918H30.8064ZM44.0128 78.6621C42.1754 78.6621 40.7442 78.1108 39.7193 77.0077C38.7064 75.905 38.2002 74.3415 38.2002 72.3173V64.7656H41.6984V72.2004C41.6984 74.3802 42.4817 75.4701 44.0481 75.4701C45.603 75.4701 46.3802 74.3802 46.3802 72.2004V64.7656H49.8255V72.3173C49.8255 74.3415 49.3132 75.905 48.2883 77.0077C47.2754 78.1108 45.8503 78.6621 44.0128 78.6621ZM61.9085 71.2856C62.6155 71.5581 63.1691 71.9862 63.5694 72.5702C63.97 73.1411 64.1699 73.8353 64.1699 74.6527C64.1699 75.8464 63.7343 76.7679 62.8628 77.4166C61.9912 78.0653 60.7307 78.3896 59.0819 78.3896H52.4033V64.7656H58.7282C60.3067 64.7656 61.5083 65.09 62.3325 65.7387C63.1571 66.3746 63.5694 67.2375 63.5694 68.3274C63.5694 68.9761 63.422 69.5602 63.1277 70.0792C62.8451 70.5851 62.4385 70.9872 61.9085 71.2856ZM55.8663 67.5487V70.1761H58.269C59.4468 70.1761 60.0358 69.7353 60.0358 68.8528C60.0358 67.9835 59.4468 67.5487 58.269 67.5487H55.8663ZM58.7989 75.6066C60.0241 75.6066 60.6363 75.1458 60.6363 74.2246C60.6363 73.3035 60.0241 72.8427 58.7989 72.8427H55.8663V75.6066H58.7989ZM66.19 64.7656H69.6883V75.3341H75.5893V78.3896H66.19V64.7656ZM77.1813 64.7656H80.6796V78.3896H77.1813V64.7656ZM89.5425 78.6621C88.247 78.6621 87.0808 78.3637 86.0442 77.7669C85.0193 77.1569 84.2128 76.3135 83.6239 75.2367C83.0349 74.1596 82.7403 72.94 82.7403 71.5776C82.7403 70.2152 83.0349 68.9956 83.6239 67.9185C84.2128 66.8417 85.0193 66.0048 86.0442 65.4079C87.0808 64.798 88.247 64.4931 89.5425 64.4931C90.6734 64.4931 91.6923 64.7138 92.5992 65.155C93.5061 65.5962 94.26 66.2318 94.8606 67.0624L92.6345 69.2809C91.8336 68.2169 90.8617 67.6851 89.7191 67.6851C89.0479 67.6851 88.4469 67.8471 87.917 68.1718C87.3987 68.4962 86.9925 68.9566 86.6978 69.5534C86.4152 70.1374 86.2739 70.812 86.2739 71.5776C86.2739 72.3432 86.4152 73.0242 86.6978 73.6214C86.9925 74.2051 87.3987 74.6591 87.917 74.9834C88.4469 75.3082 89.0479 75.4701 89.7191 75.4701C90.8617 75.4701 91.8336 74.9383 92.6345 73.8744L94.8606 76.0929C94.26 76.9235 93.5061 77.559 92.5992 78.0003C91.6923 78.4415 90.6734 78.6621 89.5425 78.6621ZM107 3.36345V0H3.36334V3.36345H107ZM107 107H103.637V3.36345H107V107ZM0 107V103.637H103.637V107H0ZM0 103.637V100.189H3.57366V103.637H0Z" fill="white"/>
<path d="M3.44753 6.10352e-05H0V61.1731H3.44753V6.10352e-05Z" fill="white"/>
</g>
<defs>
<clipPath id="clip0_6_8">
<rect width="107" height="107" fill="white"/>
</clipPath>
</defs>
</svg>
